<svg width="92" height="92" viewBox="0 0 92 92" fill="none" xmlns="http://www.w3.org/2000/svg">
<g id="&#240;&#159;&#166;&#134; icon &#34;search normal 1&#34;">
<g id="Group">
<path id="Vector" d="M43.8173 87.4448C19.7723 87.4448 0.195801 67.8683 0.195801 43.8233C0.195801 19.7783 19.7723 0.201782 43.8173 0.201782C67.8623 0.201782 87.4388 19.7783 87.4388 43.8233C87.4388 67.8683 67.8623 87.4448 43.8173 87.4448ZM43.8173 6.58542C23.262 6.58542 6.57944 23.3105 6.57944 43.8233C6.57944 64.336 23.262 81.0612 43.8173 81.0612C64.3726 81.0612 81.0552 64.336 81.0552 43.8233C81.0552 23.3105 64.3726 6.58542 43.8173 6.58542Z" fill="#292D32"/>
<path id="Vector_2" d="M88.5047 91.7001C87.6961 91.7001 86.8875 91.4022 86.2492 90.7638L77.7376 82.2523C76.5035 81.0181 76.5035 78.9753 77.7376 77.7412C78.9718 76.507 81.0146 76.507 82.2487 77.7412L90.7603 86.2527C91.9944 87.4869 91.9944 89.5296 90.7603 90.7638C90.1219 91.4022 89.3133 91.7001 88.5047 91.7001Z" fill="#292D32"/>
</g>
</g>
</svg>
