<svg width="121" height="121" viewBox="0 0 121 121" fill="none" xmlns="http://www.w3.org/2000/svg">
<path d="M121 60.5C121 27.1645 93.8355 0 60.5 0C27.1645 0 0 27.1645 0 60.5C0 78.045 7.5625 93.8355 19.5415 104.907C19.5415 104.968 19.5415 104.968 19.481 105.028C20.086 105.633 20.812 106.117 21.417 106.661C21.78 106.964 22.0825 107.267 22.4455 107.509C23.5345 108.416 24.7445 109.263 25.894 110.11C26.3175 110.413 26.6805 110.655 27.104 110.957C28.2535 111.744 29.4635 112.47 30.734 113.135C31.1575 113.377 31.6415 113.68 32.065 113.922C33.275 114.587 34.5455 115.192 35.8765 115.736C36.3605 115.979 36.8445 116.221 37.3285 116.402C38.6595 116.947 39.9905 117.431 41.3215 117.854C41.8055 118.035 42.2895 118.217 42.7735 118.338C44.2255 118.761 45.6775 119.125 47.1295 119.488C47.553 119.609 47.9765 119.729 48.4605 119.79C50.1545 120.153 51.8485 120.395 53.603 120.577C53.845 120.577 54.087 120.637 54.329 120.698C56.386 120.879 58.443 121 60.5 121C62.557 121 64.614 120.879 66.6105 120.698C66.8525 120.698 67.0945 120.637 67.3365 120.577C69.091 120.395 70.785 120.153 72.479 119.79C72.9025 119.729 73.326 119.548 73.81 119.488C75.262 119.125 76.7745 118.822 78.166 118.338C78.65 118.157 79.134 117.975 79.618 117.854C80.949 117.37 82.3405 116.947 83.611 116.402C84.095 116.221 84.579 115.979 85.063 115.736C86.3335 115.192 87.604 114.587 88.8745 113.922C89.3585 113.68 89.782 113.377 90.2055 113.135C91.4155 112.409 92.6255 111.744 93.8355 110.957C94.259 110.715 94.622 110.413 95.0455 110.11C96.2555 109.263 97.405 108.416 98.494 107.509C98.857 107.206 99.1595 106.903 99.5225 106.661C100.188 106.117 100.854 105.573 101.459 105.028C101.459 104.968 101.459 104.968 101.398 104.907C113.438 93.8355 121 78.045 121 60.5ZM90.387 90.5685C73.9915 79.5575 47.1295 79.5575 30.613 90.5685C27.951 92.323 25.773 94.38 23.958 96.6185C14.762 87.3015 9.075 74.536 9.075 60.5C9.075 32.1255 32.1255 9.075 60.5 9.075C88.8745 9.075 111.925 32.1255 111.925 60.5C111.925 74.536 106.238 87.3015 97.042 96.6185C95.2875 94.38 93.049 92.323 90.387 90.5685Z" fill="#353535"/>
</svg>
