<svg width="46" height="52" viewBox="0 0 46 52" fill="none" xmlns="http://www.w3.org/2000/svg">
<g id="&#240;&#159;&#166;&#134; icon &#34;filter&#34;">
<g id="Group">
<path id="Vector" d="M20.235 52.0001C19.0634 52.0001 17.9162 51.7072 16.8422 51.1214C14.6942 49.9253 13.4005 47.7529 13.4005 45.312V32.3753C13.4005 31.1548 12.595 29.3242 11.8383 28.3966L2.70939 18.7307C1.17163 17.1929 0 14.5568 0 12.5796V6.96558C0 3.06015 2.95348 0.0090332 6.71246 0.0090332H38.9323C42.6425 0.0090332 45.6448 3.01133 45.6448 6.72149V12.0915C45.6448 14.6544 44.107 17.5591 42.6669 18.9992L32.0978 28.3478C31.0726 29.2021 30.2671 31.0816 30.2671 32.595V43.0908C30.2671 45.2632 28.9002 47.7773 27.1916 48.8025L23.8232 50.9749C22.7248 51.6584 21.4799 52.0001 20.235 52.0001ZM6.71246 3.67038C5.00383 3.67038 3.66134 5.1105 3.66134 6.96558V12.5796C3.66134 13.4828 4.39361 15.2402 5.32115 16.1678L14.621 25.9557C15.8658 27.4935 17.0863 30.0564 17.0863 32.3509V45.2876C17.0863 46.8742 18.1847 47.6553 18.6485 47.8994C19.6736 48.4608 20.9185 48.4608 21.8704 47.875L25.2633 45.7026C25.9467 45.2876 26.6302 43.9695 26.6302 43.0908V32.595C26.6302 29.9832 27.8995 27.103 29.7301 25.5652L40.1771 16.3142C41.007 15.4843 42.0078 13.5072 42.0078 12.0671V6.72149C42.0078 5.03728 40.6409 3.67038 38.9567 3.67038H6.71246Z" fill="#292D32"/>
<path id="Vector_2" d="M8.17536 22.9531C7.83363 22.9531 7.51631 22.8555 7.199 22.6846C6.34468 22.1476 6.07619 21.0004 6.61318 20.1461L18.6468 0.863061C19.1838 0.00874758 20.3067 -0.259751 21.161 0.277246C22.0153 0.814243 22.2838 1.93705 21.7468 2.79137L9.71312 22.0744C9.37139 22.6358 8.78558 22.9531 8.17536 22.9531Z" fill="#292D32"/>
</g>
</g>
</svg>
